<svg width="22" height="21" viewBox="0 0 22 21" fill="none" xmlns="http://www.w3.org/2000/svg">
<g clip-path="url(#clip0_17_1127)">
<path d="M16.17 4.44501H14.08L13.09 6.16001L11.5866 8.75001H13.6766L16.17 4.44501Z" fill="#CECECE"/>
<path d="M12.5033 10.78H12.0266L12.2833 11.165L12.5033 10.78Z" fill="#CECECE"/>
<path d="M7.40665 8.75001L4.94999 4.44501H2.85999L5.31665 8.71501L5.42665 8.89001L5.35332 8.75001H7.40665Z" fill="#CECECE"/>
<path d="M6.52664 10.78V10.745L9.49664 15.96L10.56 14.175L8.57998 10.78H6.52664Z" fill="#CECECE"/>
<path d="M6.48999 10.71L6.52666 10.745L6.48999 10.71Z" fill="#CECECE"/>
<path d="M16.83 8.05001V4.44501L15.18 7.31501L14.3366 8.75001H16.4266L16.83 8.05001Z" fill="#CECECE"/>
<path d="M12.2833 12.355L11.3666 10.78H9.27664L12.2833 15.96L15.2533 10.78H13.2L12.2833 12.355Z" fill="#CECECE"/>
<path d="M8.68997 6.16001L7.69997 4.44501H5.64664L7.29664 7.31501L8.1033 8.75001H10.1933L8.68997 6.16001Z" fill="#CECECE"/>
<path d="M17.0866 8.995V9.02999H17.1233V8.995H17.0866Z" fill="#CECECE"/>
<path d="M19.0667 8.96H18.7367V4.41H17.1233V8.68V8.75V8.925V8.995V9.03H17.0867V8.995H16.83H5.5L5.75667 9.45L6.34333 10.465H8.06667H11.1833H11.2567H16.83H17.1233V10.64V10.78V10.92V15.855H17.2333H18.7H18.7367V10.465H19.0667H24.5667V8.96H19.0667Z" fill="#CECECE"/>
</g>
<defs>
<clipPath id="clip0_17_1127">
<rect width="22" height="21" fill="white"/>
</clipPath>
</defs>
</svg>
