<svg width="118" height="18" viewBox="0 0 118 18" fill="none" xmlns="http://www.w3.org/2000/svg">
<g>
<g>
<path d="M9.64859 0.0004673C8.89652 0.0146351 8.16907 0.278021 7.52588 0.654924C6.76719 1.09919 6.07859 1.67694 5.40038 2.23112C5.23083 2.36943 5.06412 2.51152 4.8955 2.6507C4.85102 2.68862 4.80649 2.72462 4.76195 2.76155C4.70133 2.81079 4.66817 2.87234 4.68141 2.94341C4.69848 3.02958 4.74773 3.10065 4.84719 3.11204C4.94196 3.12342 5.03666 3.13189 5.13136 3.14136C5.13328 3.14235 5.13514 3.14235 5.13804 3.14235C5.3663 3.16505 5.5927 3.16888 5.82002 3.12905C5.84366 3.12527 5.86642 3.12342 5.88721 3.12435C6.01321 3.12812 6.07476 3.21713 6.02267 3.35829C5.99236 3.4397 5.9696 3.525 5.93552 3.60455C5.78112 3.96072 5.63241 4.31969 5.46669 4.6711C5.227 5.18074 4.99305 5.67796 4.62648 6.10898C4.62369 6.11183 4.62079 6.1156 4.61609 6.12036C4.60947 6.12791 4.60285 6.13645 4.59524 6.14405C3.47469 7.44171 1.88717 8.25817 0.850003 9.63073C0.419039 10.2019 0.0117085 10.8298 0.000385675 11.5668C-0.00251761 11.7771 0.0107792 11.9902 0.04678 12.1967C0.119652 12.6258 0.264584 13.0321 0.475827 13.4148C0.694619 13.8107 0.956089 14.1735 1.25826 14.5088C1.34536 14.6054 1.42207 14.7096 1.46475 14.8346C1.51207 14.971 1.53953 15.1046 1.43345 15.2315C1.39269 15.2798 1.36342 15.3376 1.33114 15.3925C1.26012 15.5167 1.27528 15.6682 1.38229 15.7629C1.48559 15.8529 1.59353 15.941 1.711 16.0111C2.79933 16.6599 4.0856 17.0928 5.30568 17.4177C5.54619 17.4821 5.76411 17.2965 5.75743 17.0397C5.74797 16.676 5.44962 16.4231 5.15122 16.264C4.80649 16.0811 4.42378 15.995 4.0525 15.8832C3.95118 15.8529 3.84695 15.8349 3.74371 15.8112C3.74371 15.8093 3.74272 15.8083 3.74272 15.8065C3.74086 15.7999 3.73993 15.7923 3.73802 15.7856C3.77686 15.761 3.81664 15.7373 3.85549 15.7127C4.52138 15.2817 5.22607 14.8867 5.8569 14.4056C5.89859 14.3744 5.92611 14.3658 5.97436 14.3771C6.35986 14.47 6.74542 14.5618 7.13184 14.6528L7.13852 14.6537L7.26923 14.6755C7.34698 14.9303 7.42484 15.1851 7.50277 15.4399C7.56165 15.6324 7.62314 15.8251 7.68393 16.0163C7.79931 16.3791 7.87404 16.7595 8.11269 17.0677C8.17575 17.1491 8.25193 17.2254 8.34879 17.2605C8.48118 17.3083 8.62216 17.2713 8.75629 17.2528C8.89083 17.2342 9.02676 17.226 9.16171 17.2074C9.3474 17.1818 9.4885 17.0824 9.57949 16.9157C9.66566 16.7594 9.66374 16.5927 9.64481 16.4222C9.62681 16.2536 9.54535 16.1162 9.42596 16.0016C9.27348 15.8539 9.08883 15.7572 8.88514 15.6995C8.84438 15.6871 8.83015 15.6701 8.82922 15.6293C8.82829 15.5167 8.8226 15.4039 8.81976 15.2912C8.81976 14.7475 8.80089 14.2 8.77243 13.6573C8.71274 12.5111 8.84635 12.228 8.86621 12.2175C8.87283 12.8645 8.92491 13.4555 8.95615 13.7207C9.01585 14.2332 9.11061 14.7513 9.22047 15.2476C9.26593 15.4541 9.32086 15.6606 9.47143 15.8216C9.5472 15.904 9.62496 15.9827 9.75566 15.9732C9.9233 15.9609 10.0909 15.9627 10.2586 15.9552C10.3088 15.9533 10.3609 15.9457 10.4092 15.9315C10.7663 15.832 10.8288 15.3565 10.6734 15.1018C10.5474 14.8953 10.3495 14.7835 10.1203 14.6963C10.1269 14.6215 10.1345 14.5486 10.1392 14.4747C10.1876 13.6014 10.2197 12.7413 10.3912 11.8803C10.5579 11.0392 10.808 10.2066 11.0855 9.40433C11.2835 8.83122 11.5307 8.1767 11.4104 7.56388C11.3337 7.17461 11.1063 6.79288 10.915 6.44994C10.7094 6.07867 10.467 5.68841 10.485 5.247C10.4944 4.99505 10.592 4.75448 10.7076 4.52901C10.8127 4.32253 10.932 4.08005 11.0902 3.90765C11.1338 3.86033 11.1849 3.82148 11.2409 3.78734C11.3526 3.71917 11.4814 3.67179 11.5989 3.62539C12.027 3.45683 12.405 3.18404 12.7791 2.91688C13.1069 2.68392 13.4394 2.44991 13.7131 2.15534C14.001 1.84562 14.2132 1.46291 14.2577 1.03671C14.2767 0.84631 14.2548 0.672983 14.1478 0.513826C14.0228 0.326273 13.7926 0.37743 13.5985 0.391655C13.338 0.409657 13.0784 0.435205 12.8198 0.46929C12.5187 0.507206 12.1919 0.597208 11.8878 0.534613C11.1323 0.38039 10.4788 6.10352e-05 9.69405 1.90735e-06C9.67896 1.90735e-06 9.66386 0.000175476 9.64859 0.0004673ZM6.54648 13.428L6.33054 13.4224L6.56356 13.2064C6.59764 13.1742 6.63172 13.143 6.6668 13.1117C6.72457 13.0577 6.76905 13.0529 6.80319 13.0984C6.80319 13.0993 6.80412 13.1003 6.80412 13.1013C6.81359 13.1136 6.82119 13.1297 6.82874 13.1486C6.85243 13.213 6.87705 13.2764 6.90173 13.3457C6.90452 13.3542 6.90829 13.3627 6.9112 13.3712C6.93576 13.4366 6.94906 13.4735 6.94906 13.4735C6.80319 13.4583 6.67342 13.4489 6.54648 13.428Z" fill="white"/>
<path d="M1.22086 15.4171C1.23729 15.4336 1.24472 15.4425 1.24472 15.4425L1.23131 15.3829C1.22533 15.3948 1.22231 15.4067 1.22086 15.4171Z" fill="white"/>
<path d="M9.45843 7.32616C10.3033 8.8246 8.86646 12.2175 8.86646 12.2175C8.87307 12.8645 8.92516 13.4555 8.9564 13.7207C9.01609 14.2332 9.11085 14.7513 9.22071 15.2476C9.26618 15.4541 9.32111 15.6606 9.47167 15.8216C9.54745 15.904 9.6252 15.9827 9.75591 15.9732C9.92354 15.9609 10.0912 15.9627 10.2588 15.9552C10.309 15.9533 10.3611 15.9457 10.4094 15.9315C10.7665 15.832 10.8291 15.3565 10.6737 15.1018C10.5477 14.8953 10.3497 14.7835 10.1206 14.6963C10.1272 14.6215 10.1348 14.5486 10.1395 14.4747C10.1878 13.6014 10.22 12.7413 10.3914 11.8803C10.5581 11.0392 10.8082 10.2066 11.0857 9.40433C11.2837 8.83122 11.5309 8.17671 11.4106 7.56388C11.3339 7.17461 11.1066 6.79288 10.9152 6.44995C10.7097 6.07867 10.4672 5.68841 10.4852 5.247C10.4947 4.99505 10.5922 4.75448 10.7078 4.52901C10.8129 4.32253 10.9323 4.08005 11.0905 3.90765C11.134 3.86033 11.1852 3.82148 11.2411 3.78734C11.2205 3.77933 11.1963 3.77538 11.1688 3.77538C10.5765 3.77561 8.4809 5.59284 9.45843 7.32616Z" fill="white"/>
<path d="M3.87275 11.8073C4.02244 12.5528 5.01037 13.4838 4.61826 14.4159C4.30093 15.1737 3.67573 15.8073 3.67573 15.8102L3.67004 15.813L3.74297 15.8064C3.74112 15.7998 3.74019 15.7922 3.73827 15.7856C3.77712 15.7609 3.81689 15.7373 3.85574 15.7126C4.52164 15.2816 5.22632 14.8867 5.85715 14.4055C5.89884 14.3743 5.92636 14.3657 5.97461 14.3771C6.36011 14.4699 6.74567 14.5618 7.1321 14.6527L7.13878 14.6536L7.26948 14.6754L6.94931 13.4734C6.80345 13.4582 6.67367 13.4488 6.54674 13.4279L6.33079 13.4223L6.56381 13.2063C6.59789 13.1741 6.63198 13.1429 6.66705 13.1116C6.72482 13.0576 6.7693 13.0529 6.80344 13.0983C6.52496 12.4173 5.88937 11.0277 5.25948 10.8042C5.10148 10.748 4.94859 10.7221 4.80535 10.7221C4.18857 10.7222 3.75209 11.2024 3.87275 11.8073Z" fill="white"/>
<path d="M4.76177 2.76153C4.70167 2.81147 4.66799 2.87232 4.68123 2.94339C4.6983 3.02956 4.74754 3.10063 4.84701 3.11202C4.94177 3.1234 5.03648 3.13187 5.13118 3.14134C5.1331 3.14233 5.13496 3.14233 5.13786 3.14233C5.36612 3.16503 5.59252 3.16886 5.81984 3.12903C5.84348 3.12525 5.86624 3.1234 5.88702 3.12433C6.01303 3.1281 6.07458 3.21711 6.02249 3.35827C5.99218 3.43968 5.96942 3.52498 5.93534 3.60453C5.78094 3.9607 5.63223 4.31967 5.46651 4.67108C5.22682 5.18072 4.99287 5.67794 4.6263 6.10896C4.62351 6.11181 4.62061 6.11558 4.61782 6.11843L4.61591 6.12034C4.60929 6.12789 4.60267 6.13643 4.59506 6.14403L4.59599 6.14682C5.4229 5.28774 7.60908 3.00018 7.11744 2.48119C7.00769 2.36512 6.78832 2.31982 6.52505 2.31982C5.87727 2.31982 4.96361 2.59384 4.76177 2.76153Z" fill="white"/>
</g>
<path d="M24.747 7.37295V12.771C24.747 13.147 24.8343 13.4223 25.0088 13.5968C25.1968 13.758 25.5057 13.8385 25.9353 13.8385H27.2446V16.2153H25.4721C23.0953 16.2153 21.907 15.0605 21.907 12.7509V7.37295H20.5776V5.05663H21.907V2.29718H24.747V5.05663H27.2446V7.37295H24.747ZM39.6459 10.3942C39.6459 10.7971 39.619 11.1596 39.5653 11.4819H31.4078C31.475 12.2876 31.7569 12.9187 32.2538 13.3753C32.7506 13.8318 33.3616 14.0601 34.0867 14.0601C35.1341 14.0601 35.8793 13.6102 36.3225 12.7106H39.3639C39.0416 13.7848 38.4239 14.6711 37.5108 15.3693C36.5977 16.0541 35.4765 16.3965 34.1471 16.3965C33.0729 16.3965 32.1061 16.1616 31.2467 15.6916C30.4007 15.2082 29.736 14.5301 29.2526 13.6572C28.7827 12.7844 28.5477 11.7773 28.5477 10.6359C28.5477 9.48114 28.7827 8.46733 29.2526 7.59451C29.7226 6.72169 30.3806 6.0503 31.2265 5.58032C32.0725 5.11034 33.046 4.87535 34.1471 4.87535C35.2079 4.87535 36.1546 5.10362 36.9871 5.56017C37.8331 6.01673 38.4844 6.66798 38.9409 7.51394C39.4109 8.34648 39.6459 9.30658 39.6459 10.3942ZM36.7253 9.58857C36.7119 8.86346 36.45 8.28605 35.9398 7.85636C35.4295 7.41323 34.8051 7.19167 34.0666 7.19167C33.3683 7.19167 32.7775 7.40652 32.2941 7.83622C31.8241 8.25248 31.5354 8.8366 31.428 9.58857H36.7253ZM45.9742 16.3965C45.0611 16.3965 44.242 16.2354 43.5169 15.9131C42.7918 15.5774 42.2144 15.1276 41.7847 14.5636C41.3684 13.9997 41.1402 13.3753 41.0999 12.6904H43.9399C43.9936 13.1201 44.2017 13.476 44.5643 13.758C44.9403 14.0399 45.4035 14.1809 45.9541 14.1809C46.4912 14.1809 46.9075 14.0735 47.2029 13.8587C47.5117 13.6438 47.6662 13.3685 47.6662 13.0328C47.6662 12.6703 47.4782 12.4017 47.1022 12.2272C46.7396 12.0392 46.1555 11.8378 45.3498 11.6229C44.5173 11.4215 43.8325 11.2134 43.2954 10.9985C42.7717 10.7837 42.3151 10.4547 41.9257 10.0115C41.5497 9.56842 41.3617 8.97088 41.3617 8.21891C41.3617 7.60123 41.5363 7.03725 41.8854 6.52699C42.248 6.01673 42.7582 5.61389 43.4162 5.31847C44.0876 5.02306 44.8731 4.87535 45.7728 4.87535C47.1022 4.87535 48.163 5.21105 48.9552 5.88245C49.7475 6.54042 50.1839 7.43338 50.2645 8.56133H47.5654C47.5252 8.1182 47.3372 7.76908 47.0015 7.51394C46.6792 7.24539 46.2428 7.11111 45.6922 7.11111C45.182 7.11111 44.7859 7.2051 44.5039 7.39309C44.2353 7.58108 44.101 7.84293 44.101 8.17863C44.101 8.55461 44.289 8.84331 44.665 9.04473C45.041 9.23273 45.6251 9.42743 46.4174 9.62885C47.223 9.83027 47.8877 10.0384 48.4114 10.2533C48.9351 10.4681 49.3849 10.8038 49.7609 11.2603C50.1503 11.7035 50.3518 12.2943 50.3652 13.0328C50.3652 13.6774 50.1839 14.2548 49.8213 14.765C49.4722 15.2753 48.962 15.6782 48.2906 15.9736C47.6326 16.2556 46.8605 16.3965 45.9742 16.3965ZM55.9631 7.37295V12.771C55.9631 13.147 56.0504 13.4223 56.2249 13.5968C56.4129 13.758 56.7218 13.8385 57.1514 13.8385H58.4607V16.2153H56.6882C54.3114 16.2153 53.1231 15.0605 53.1231 12.7509V7.37295H51.7937V5.05663H53.1231V2.29718H55.9631V5.05663H58.4607V7.37295H55.9631ZM59.7638 10.5957C59.7638 9.46771 59.9853 8.46733 60.4284 7.59451C60.885 6.72169 61.496 6.0503 62.2614 5.58032C63.0402 5.11034 63.9063 4.87535 64.8597 4.87535C65.6922 4.87535 66.4173 5.0432 67.035 5.3789C67.6661 5.7146 68.1697 6.13758 68.5457 6.64784V5.05663H71.3857V16.2153H68.5457V14.5838C68.1831 15.1075 67.6796 15.5439 67.035 15.893C66.4039 16.2287 65.6721 16.3965 64.8395 16.3965C63.8996 16.3965 63.0402 16.1548 62.2614 15.6714C61.496 15.188 60.885 14.5099 60.4284 13.6371C59.9853 12.7509 59.7638 11.737 59.7638 10.5957ZM68.5457 10.6359C68.5457 9.95112 68.4114 9.367 68.1428 8.8836C67.8743 8.38676 67.5117 8.01078 67.0552 7.75565C66.5986 7.48709 66.1085 7.35281 65.5848 7.35281C65.0611 7.35281 64.5777 7.48037 64.1346 7.73551C63.6914 7.99064 63.3289 8.36662 63.0469 8.86346C62.7783 9.34686 62.6441 9.92427 62.6441 10.5957C62.6441 11.2671 62.7783 11.8579 63.0469 12.3682C63.3289 12.865 63.6914 13.2477 64.1346 13.5162C64.5911 13.7848 65.0745 13.9191 65.5848 13.9191C66.1085 13.9191 66.5986 13.7915 67.0552 13.5364C67.5117 13.2678 67.8743 12.8918 68.1428 12.4084C68.4114 11.9116 68.5457 11.3208 68.5457 10.6359ZM84.674 5.05663V16.2153H81.834V14.8053C81.4714 15.2887 80.9948 15.6714 80.4039 15.9534C79.8265 16.222 79.1954 16.3563 78.5106 16.3563C77.6378 16.3563 76.8657 16.175 76.1943 15.8124C75.5229 15.4364 74.9924 14.8926 74.603 14.1809C74.2271 13.4558 74.0391 12.5964 74.0391 11.6028V5.05663H76.8589V11.1999C76.8589 12.0862 77.0805 12.771 77.5236 13.2544C77.9667 13.7244 78.571 13.9594 79.3364 13.9594C80.1152 13.9594 80.7262 13.7244 81.1693 13.2544C81.6124 12.771 81.834 12.0862 81.834 11.1999V5.05663H84.674ZM91.7264 16.3965C90.8133 16.3965 89.9942 16.2354 89.2691 15.9131C88.5439 15.5774 87.9665 15.1276 87.5368 14.5636C87.1206 13.9997 86.8923 13.3753 86.852 12.6904H89.692C89.7457 13.1201 89.9539 13.476 90.3164 13.758C90.6924 14.0399 91.1557 14.1809 91.7062 14.1809C92.2434 14.1809 92.6596 14.0735 92.955 13.8587C93.2639 13.6438 93.4183 13.3685 93.4183 13.0328C93.4183 12.6703 93.2303 12.4017 92.8543 12.2272C92.4918 12.0392 91.9077 11.8378 91.102 11.6229C90.2694 11.4215 89.5846 11.2134 89.0475 10.9985C88.5238 10.7837 88.0673 10.4547 87.6778 10.0115C87.3019 9.56842 87.1139 8.97088 87.1139 8.21891C87.1139 7.60123 87.2884 7.03725 87.6376 6.52699C88.0001 6.01673 88.5104 5.61389 89.1683 5.31847C89.8397 5.02306 90.6253 4.87535 91.525 4.87535C92.8543 4.87535 93.9151 5.21105 94.7074 5.88245C95.4996 6.54042 95.936 7.43338 96.0166 8.56133H93.3176C93.2773 8.1182 93.0893 7.76908 92.7536 7.51394C92.4313 7.24539 91.9949 7.11111 91.4444 7.11111C90.9341 7.11111 90.538 7.2051 90.256 7.39309C89.9875 7.58108 89.8532 7.84293 89.8532 8.17863C89.8532 8.55461 90.0412 8.84331 90.4171 9.04473C90.7931 9.23273 91.3772 9.42743 92.1695 9.62885C92.9752 9.83027 93.6399 10.0384 94.1635 10.2533C94.6872 10.4681 95.1371 10.8038 95.5131 11.2603C95.9025 11.7035 96.1039 12.2943 96.1173 13.0328C96.1173 13.6774 95.936 14.2548 95.5735 14.765C95.2244 15.2753 94.7141 15.6782 94.0427 15.9736C93.3847 16.2556 92.6126 16.3965 91.7264 16.3965ZM99.8622 3.72726C99.3653 3.72726 98.9491 3.57284 98.6134 3.26399C98.2911 2.94172 98.1299 2.54559 98.1299 2.07562C98.1299 1.60564 98.2911 1.21623 98.6134 0.907382C98.9491 0.585111 99.3653 0.423975 99.8622 0.423975C100.359 0.423975 100.769 0.585111 101.091 0.907382C101.427 1.21623 101.594 1.60564 101.594 2.07562C101.594 2.54559 101.427 2.94172 101.091 3.26399C100.769 3.57284 100.359 3.72726 99.8622 3.72726ZM101.252 5.05663V16.2153H98.4321V5.05663H101.252ZM103.313 10.5957C103.313 9.46771 103.534 8.46733 103.978 7.59451C104.434 6.72169 105.052 6.0503 105.831 5.58032C106.609 5.11034 107.476 4.87535 108.429 4.87535C109.154 4.87535 109.846 5.03648 110.504 5.35875C111.162 5.6676 111.685 6.08387 112.075 6.60756V1.31022H114.935V16.2153H112.075V14.5636C111.726 15.1142 111.235 15.5573 110.604 15.893C109.973 16.2287 109.241 16.3965 108.409 16.3965C107.469 16.3965 106.609 16.1548 105.831 15.6714C105.052 15.188 104.434 14.5099 103.978 13.6371C103.534 12.7509 103.313 11.737 103.313 10.5957ZM112.095 10.6359C112.095 9.95112 111.96 9.367 111.692 8.8836C111.423 8.38676 111.061 8.01078 110.604 7.75565C110.148 7.48709 109.658 7.35281 109.134 7.35281C108.61 7.35281 108.127 7.48037 107.684 7.73551C107.241 7.99064 106.878 8.36662 106.596 8.86346C106.327 9.34686 106.193 9.92427 106.193 10.5957C106.193 11.2671 106.327 11.8579 106.596 12.3682C106.878 12.865 107.241 13.2477 107.684 13.5162C108.14 13.7848 108.624 13.9191 109.134 13.9191C109.658 13.9191 110.148 13.7915 110.604 13.5364C111.061 13.2678 111.423 12.8918 111.692 12.4084C111.96 11.9116 112.095 11.3208 112.095 10.6359Z" fill="white"/>
</g>
</svg>
